<svg width="24" height="24" viewBox="0 0 24 24" fill="none" xmlns="http://www.w3.org/2000/svg">
<path d="M11.6464 18.1869C11.8417 18.3821 12.1583 18.3821 12.3536 18.1869L15.5355 15.0049C15.7308 14.8096 15.7308 14.4931 15.5355 14.2978C15.3403 14.1025 15.0237 14.1025 14.8284 14.2978L12 17.1262L9.17157 14.2978C8.97631 14.1025 8.65973 14.1025 8.46447 14.2978C8.2692 14.4931 8.2692 14.8096 8.46447 15.0049L11.6464 18.1869ZM11.5 2L11.5 17.8333L12.5 17.8333L12.5 2L11.5 2Z" fill="black"/>
<rect x="2" y="21.1667" width="20" height="0.833333" rx="0.416667" fill="black"/>
<rect x="2" y="11.1667" width="6.66667" height="0.833333" rx="0.416667" fill="black"/>
<rect x="15.3333" y="11.1667" width="6.66667" height="0.833333" rx="0.416667" fill="black"/>
<rect x="2" y="11.1667" width="0.833333" height="10.8333" rx="0.416667" fill="black"/>
<rect x="21.1667" y="11.1667" width="0.833333" height="10.8333" rx="0.416667" fill="black"/>
</svg>
