<svg width="20" height="20" viewBox="0 0 20 20" fill="none" xmlns="http://www.w3.org/2000/svg">
<path d="M16.1867 10.3536C16.382 10.1583 16.382 9.84171 16.1867 9.64645L13.0047 6.46447C12.8095 6.2692 12.4929 6.2692 12.2976 6.46447C12.1024 6.65973 12.1024 6.97631 12.2976 7.17157L15.1261 10L12.2976 12.8284C12.1024 13.0237 12.1024 13.3403 12.2976 13.5355C12.4929 13.7308 12.8095 13.7308 13.0047 13.5355L16.1867 10.3536ZM-0.000160237 10.5L15.8332 10.5L15.8332 9.5L-0.000160198 9.5L-0.000160237 10.5Z" fill="black"/>
<rect x="19.1667" y="20" width="20" height="0.833333" rx="0.416667" transform="rotate(-90 19.1667 20)" fill="black"/>
<rect x="9.16667" y="20" width="6.66667" height="0.833333" rx="0.416667" transform="rotate(-90 9.16667 20)" fill="black"/>
<rect x="9.16667" y="6.66667" width="6.66667" height="0.833333" rx="0.416667" transform="rotate(-90 9.16667 6.66667)" fill="black"/>
<rect x="9.16667" y="20" width="0.833333" height="10.8333" rx="0.416667" transform="rotate(-90 9.16667 20)" fill="black"/>
<rect x="9.16667" y="0.833328" width="0.833333" height="10.8333" rx="0.416667" transform="matrix(0 -1 1 0 8.33334 10)" fill="black"/>
</svg>
